<svg width="36" height="36" viewBox="0 0 36 36" fill="none" xmlns="http://www.w3.org/2000/svg">
<path d="M20.565 26.4149C20.3661 26.4149 20.1753 26.4939 20.0346 26.6345C19.894 26.7752 19.815 26.966 19.815 27.1649C19.815 27.3638 19.894 27.5545 20.0346 27.6952C20.1753 27.8359 20.3661 27.9149 20.565 27.9149H24.435C24.6339 27.9149 24.8246 27.8359 24.9653 27.6952C25.106 27.5545 25.185 27.3638 25.185 27.1649C25.185 26.966 25.106 26.7752 24.9653 26.6345C24.8246 26.4939 24.6339 26.4149 24.435 26.4149H20.565ZM19.815 24.9659C19.815 24.767 19.894 24.5762 20.0346 24.4355C20.1753 24.2949 20.3661 24.2159 20.565 24.2159H24.435C24.6339 24.2159 24.8246 24.2949 24.9653 24.4355C25.106 24.5762 25.185 24.767 25.185 24.9659C25.185 25.1648 25.106 25.3555 24.9653 25.4962C24.8246 25.6369 24.6339 25.7159 24.435 25.7159H20.565C20.3661 25.7159 20.1753 25.6369 20.0346 25.4962C19.894 25.3555 19.815 25.1648 19.815 24.9659ZM20.46 15.7739C20.3194 15.9145 20.2404 16.1052 20.2404 16.3041C20.2404 16.503 20.3194 16.6937 20.46 16.8344L21.4395 17.8154L20.4585 18.7949C20.3887 18.8645 20.3334 18.9472 20.2956 19.0382C20.2579 19.1292 20.2384 19.2268 20.2383 19.3253C20.2382 19.5244 20.3171 19.7153 20.4577 19.8561C20.5984 19.997 20.7892 20.0761 20.9882 20.0763C21.1872 20.0764 21.3781 19.9975 21.519 19.8569L22.5 18.8759L23.4795 19.8569C23.6209 19.9935 23.8104 20.0691 24.007 20.0674C24.2037 20.0657 24.3918 19.9868 24.5308 19.8477C24.6699 19.7087 24.7488 19.5206 24.7505 19.3239C24.7522 19.1273 24.6766 18.9378 24.54 18.7964L23.5605 17.8154L24.54 16.8344C24.6766 16.6929 24.7522 16.5035 24.7505 16.3068C24.7488 16.1102 24.6699 15.9221 24.5308 15.783C24.3918 15.644 24.2037 15.5651 24.007 15.5634C23.8104 15.5617 23.6209 15.6373 23.4795 15.7739L22.5 16.7549L21.519 15.7739C21.3783 15.6333 21.1876 15.5543 20.9887 15.5543C20.7898 15.5543 20.5991 15.6333 20.4585 15.7739M10.815 26.0654C10.815 25.8665 10.894 25.6757 11.0346 25.535C11.1753 25.3944 11.3661 25.3154 11.565 25.3154H15.435C15.6339 25.3154 15.8247 25.3944 15.9653 25.535C16.106 25.6757 16.185 25.8665 16.185 26.0654C16.185 26.2643 16.106 26.455 15.9653 26.5957C15.8247 26.7364 15.6339 26.8154 15.435 26.8154H11.565C11.3661 26.8154 11.1753 26.7364 11.0346 26.5957C10.894 26.455 10.815 26.2643 10.815 26.0654ZM13.5 15.1304C13.3011 15.1304 13.1103 15.2094 12.9696 15.35C12.829 15.4907 12.75 15.6815 12.75 15.8804V17.0654H11.565C11.3661 17.0654 11.1753 17.1444 11.0346 17.285C10.894 17.4257 10.815 17.6165 10.815 17.8154C10.815 18.0143 10.894 18.205 11.0346 18.3457C11.1753 18.4864 11.3661 18.5654 11.565 18.5654H12.75V19.7504C12.75 19.9493 12.829 20.14 12.9696 20.2807C13.1103 20.4214 13.3011 20.5004 13.5 20.5004C13.6989 20.5004 13.8897 20.4214 14.0303 20.2807C14.171 20.14 14.25 19.9493 14.25 19.7504V18.5654H15.435C15.6339 18.5654 15.8247 18.4864 15.9653 18.3457C16.106 18.205 16.185 18.0143 16.185 17.8154C16.185 17.6165 16.106 17.4257 15.9653 17.285C15.8247 17.1444 15.6339 17.0654 15.435 17.0654H14.25V15.8804C14.25 15.6815 14.171 15.4907 14.0303 15.35C13.8897 15.2094 13.6989 15.1304 13.5 15.1304Z" fill="currentColor"/>
<path d="M6.75 6.37494C6.75 5.47983 7.10558 4.62139 7.73851 3.98845C8.37145 3.35552 9.22989 2.99994 10.125 2.99994H25.875C26.7701 2.99994 27.6285 3.35552 28.2615 3.98845C28.8944 4.62139 29.25 5.47983 29.25 6.37494V29.6249C29.25 30.52 28.8944 31.3785 28.2615 32.0114C27.6285 32.6444 26.7701 32.9999 25.875 32.9999H10.125C9.22989 32.9999 8.37145 32.6444 7.73851 32.0114C7.10558 31.3785 6.75 30.52 6.75 29.6249V6.37494ZM10.125 5.24994C9.82663 5.24994 9.54048 5.36847 9.3295 5.57944C9.11853 5.79042 9 6.07657 9 6.37494V10.8749H27V6.37494C27 6.07657 26.8815 5.79042 26.6705 5.57944C26.4595 5.36847 26.1734 5.24994 25.875 5.24994H10.125ZM9 29.6249C9 30.2459 9.504 30.7499 10.125 30.7499H25.875C26.1734 30.7499 26.4595 30.6314 26.6705 30.4204C26.8815 30.2095 27 29.9233 27 29.6249V13.1249H9V29.6249Z" fill="currentColor"/>
</svg>
