<svg width="36" height="36" viewBox="0 0 36 36" fill="none" xmlns="http://www.w3.org/2000/svg">
<path d="M27.9 33H8.1C7.62572 33 7.15612 32.9063 6.71817 32.7243C6.28022 32.5422 5.88256 32.2754 5.54803 31.9392C5.2135 31.603 4.9487 31.2041 4.76885 30.7652C4.58899 30.3264 4.49763 29.8563 4.5 29.382V12.498C4.5 11.925 4.77 11.397 5.22 11.0505L16.89 3.36152C17.2011 3.12668 17.5802 2.99963 17.97 2.99963C18.3598 2.99963 18.7389 3.12668 19.05 3.36152L30.78 11.0505C31.23 11.397 31.5 11.925 31.5 12.498V29.382C31.5024 29.8563 31.411 30.3264 31.2311 30.7652C31.0513 31.2041 30.7865 31.603 30.452 31.9392C30.1174 32.2754 29.7198 32.5422 29.2818 32.7243C28.8439 32.9063 28.3743 33 27.9 33Z" stroke="currentColor" stroke-width="2" stroke-miterlimit="10" stroke-linejoin="round"/>
<path d="M14.7 18H21.3C21.96 18 22.5 18.54 22.5 19.2V33H13.5V19.2C13.5 18.54 14.04 18 14.7 18Z" stroke="currentColor" stroke-width="2" stroke-miterlimit="10" stroke-linejoin="round"/>
</svg>
