<svg width="36" height="36" viewBox="0 0 36 36" fill="none" xmlns="http://www.w3.org/2000/svg">
<path d="M30.1275 25.5C30.8775 23.25 31.5 20.1555 31.5 18C31.5 16.2272 31.1508 14.4717 30.4724 12.8338C29.7939 11.1959 28.7995 9.70765 27.5459 8.45406C26.2923 7.20047 24.8041 6.20607 23.1662 5.52763C21.5283 4.84919 19.7728 4.5 18 4.5C16.2272 4.5 14.4717 4.84919 12.8338 5.52763C11.1959 6.20607 9.70765 7.20047 8.45406 8.45406C7.20047 9.70765 6.20606 11.1959 5.52763 12.8338C4.84919 14.4717 4.5 16.2272 4.5 18C4.5 20.1555 5.1225 23.25 5.8725 25.5" stroke="currentColor" stroke-width="2.25" stroke-linecap="round" stroke-linejoin="round"/>
<path d="M13.4654 29.406L10.8584 21.9195C10.5794 21.2205 9.69294 20.8695 8.96244 21.045C7.87253 21.4119 6.97222 22.1953 6.45838 23.2241C5.94454 24.2529 5.85899 25.4433 6.22044 26.535L6.87744 28.524C7.05462 29.0642 7.33668 29.5641 7.70743 29.995C8.07819 30.426 8.53036 30.7795 9.03802 31.0354C9.54567 31.2912 10.0988 31.4443 10.6658 31.486C11.2327 31.5276 11.8023 31.457 12.3419 31.278C13.0334 30.984 13.6559 30.135 13.4654 29.406ZM22.5359 29.406L25.1414 21.9195C25.4204 21.2205 26.3069 20.8695 27.0374 21.045C28.1273 21.4119 29.0277 22.1953 29.5415 23.2241C30.0553 24.2529 30.1409 25.4433 29.7794 26.535L29.1224 28.524C28.9453 29.0642 28.6632 29.5641 28.2924 29.995C27.9217 30.426 27.4695 30.7795 26.9619 31.0354C26.4542 31.2912 25.901 31.4443 25.3341 31.486C24.7671 31.5276 24.1975 31.457 23.6579 31.278C22.9664 30.984 22.3439 30.135 22.5359 29.406Z" stroke="currentColor" stroke-width="2.25" stroke-linecap="round" stroke-linejoin="round"/>
</svg>
